# xmcd
#
# Track frame offsets: 
#        150
#        13395
#        27512
#        40392
#        50150
#        62417
#        80282
#        97025
#        113310
#        124987
#        142325
#        155807
#
# Disc length: 2258 seconds
#
# Revision: 1
# Processed by: cddbd v1.4PL0 Copyright (c) Steve Scherf et al.
# Submitted via: ExactAudioCopy v0.90b3
#
DISCID=ac08d00c
DTITLE=The Kendalls - Break The Routine
DYEAR=1900
DGENRE=Country
TTITLE0=Dancin' With Myself Tonighit
TTITLE1=Call Before Midnight
TTITLE2=Routine
TTITLE3=A Whole Lot To Lose
TTITLE4=A Far Cry
TTITLE5=What Kind Of Fool Keeps Hangin' On
TTITLE6=Rhythm Of Romance
TTITLE7=Any Old Love Will Do
TTITLE8=They Can't Stop Me
TTITLE9=You Never Cross My Mind
TTITLE10=Country Music Station
TTITLE11=Still Pickin' Up After You
EXTD=
EXTT0=
EXTT1=
EXTT2=
EXTT3=
EXTT4=
EXTT5=
EXTT6=
EXTT7=
EXTT8=
EXTT9=
EXTT10=
EXTT11=
PLAYORDER=
